<svg width="32" height="32" viewBox="0 0 32 32" fill="none" xmlns="http://www.w3.org/2000/svg">
<path d="M27.3335 22.3333H24.3335V19.3333C24.3335 18.7866 23.8802 18.3333 23.3335 18.3333C22.7868 18.3333 22.3335 18.7866 22.3335 19.3333V22.3333H19.3335C18.7868 22.3333 18.3335 22.7866 18.3335 23.3333C18.3335 23.88 18.7868 24.3333 19.3335 24.3333H22.3335V27.3333C22.3335 27.88 22.7868 28.3333 23.3335 28.3333C23.8802 28.3333 24.3335 27.88 24.3335 27.3333V24.3333H27.3335C27.8802 24.3333 28.3335 23.88 28.3335 23.3333C28.3335 22.7866 27.8802 22.3333 27.3335 22.3333Z" fill="#0466C8"/>
<path opacity="0.4" d="M29.3333 11.36V5.30669C29.3333 3.42669 28.48 2.66669 26.36 2.66669H20.9733C18.8533 2.66669 18 3.42669 18 5.30669V11.3467C18 13.24 18.8533 13.9867 20.9733 13.9867H26.36C28.48 14 29.3333 13.24 29.3333 11.36Z" fill="#0466C8"/>
<path d="M13.9998 11.36V5.30669C13.9998 3.42669 13.1465 2.66669 11.0265 2.66669H5.63984C3.51984 2.66669 2.6665 3.42669 2.6665 5.30669V11.3467C2.6665 13.24 3.51984 13.9867 5.63984 13.9867H11.0265C13.1465 14 13.9998 13.24 13.9998 11.36Z" fill="#0466C8"/>
<path opacity="0.4" d="M13.9998 26.36V20.9733C13.9998 18.8533 13.1465 18 11.0265 18H5.63984C3.51984 18 2.6665 18.8533 2.6665 20.9733V26.36C2.6665 28.48 3.51984 29.3333 5.63984 29.3333H11.0265C13.1465 29.3333 13.9998 28.48 13.9998 26.36Z" fill="#0466C8"/>
</svg>
