<svg width="48" height="48" viewBox="0 0 48 48" fill="none" xmlns="http://www.w3.org/2000/svg">
<rect width="48" height="48" rx="8" fill="#0466C8"/>
<path opacity="0.4" d="M33 34H15C14.59 34 14.25 33.66 14.25 33.25C14.25 32.84 14.59 32.5 15 32.5H33C33.41 32.5 33.75 32.84 33.75 33.25C33.75 33.66 33.41 34 33 34Z" fill="white"/>
<path opacity="0.4" d="M31.0196 15.48C29.0796 13.54 27.1796 13.49 25.1896 15.48L23.9796 16.69C23.8796 16.79 23.8396 16.95 23.8796 17.09C24.6396 19.74 26.7596 21.86 29.4096 22.62C29.4496 22.63 29.4896 22.64 29.5296 22.64C29.6396 22.64 29.7396 22.6 29.8196 22.52L31.0196 21.31C32.0096 20.33 32.4896 19.38 32.4896 18.42C32.4996 17.43 32.0196 16.47 31.0196 15.48Z" fill="white"/>
<path d="M27.6103 23.53C27.3203 23.39 27.0403 23.25 26.7703 23.09C26.5503 22.96 26.3403 22.82 26.1303 22.67C25.9603 22.56 25.7603 22.4 25.5703 22.24C25.5503 22.23 25.4803 22.17 25.4003 22.09C25.0703 21.81 24.7003 21.45 24.3703 21.05C24.3403 21.03 24.2903 20.96 24.2203 20.87C24.1203 20.75 23.9503 20.55 23.8003 20.32C23.6803 20.17 23.5403 19.95 23.4103 19.73C23.2503 19.46 23.1103 19.19 22.9703 18.91C22.8303 18.61 22.7203 18.32 22.6203 18.05L16.3403 24.33C16.2103 24.46 16.0903 24.71 16.0603 24.88L15.5203 28.71C15.4203 29.39 15.6103 30.03 16.0303 30.46C16.3903 30.81 16.8903 31 17.4303 31C17.5503 31 17.6703 30.99 17.7903 30.97L21.6303 30.43C21.8103 30.4 22.0603 30.28 22.1803 30.15L28.4603 23.87C28.1803 23.77 27.9103 23.66 27.6103 23.53Z" fill="white"/>
</svg>
