<svg width="74" height="74" viewBox="0 0 74 74" fill="none" xmlns="http://www.w3.org/2000/svg">
<g filter="url(#filter0_d_45_849)">
<rect x="16" y="8" width="50" height="50" rx="20" fill="#FFB628"/>
<path d="M50.97 39.33C50.97 39.69 50.89 40.06 50.72 40.42C50.55 40.78 50.33 41.12 50.04 41.44C49.55 41.98 49.01 42.37 48.4 42.62C47.8 42.87 47.15 43 46.45 43C45.43 43 44.34 42.76 43.19 42.27C42.04 41.78 40.89 41.12 39.75 40.29C38.6 39.45 37.51 38.52 36.47 37.49C35.44 36.45 34.51 35.36 33.68 34.22C32.86 33.08 32.2 31.94 31.72 30.81C31.24 29.67 31 28.58 31 27.54C31 26.86 31.12 26.21 31.36 25.61C31.6 25 31.98 24.44 32.51 23.94C33.15 23.31 33.85 23 34.59 23C34.87 23 35.15 23.06 35.4 23.18C35.66 23.3 35.89 23.48 36.07 23.74L38.39 27.01C38.57 27.26 38.7 27.49 38.79 27.71C38.88 27.92 38.93 28.13 38.93 28.32C38.93 28.56 38.86 28.8 38.72 29.03C38.59 29.26 38.4 29.5 38.16 29.74L37.4 30.53C37.29 30.64 37.24 30.77 37.24 30.93C37.24 31.01 37.25 31.08 37.27 31.16C37.3 31.24 37.33 31.3 37.35 31.36C37.53 31.69 37.84 32.12 38.28 32.64C38.73 33.16 39.21 33.69 39.73 34.22C40.27 34.75 40.79 35.24 41.32 35.69C41.84 36.13 42.27 36.43 42.61 36.61C42.66 36.63 42.72 36.66 42.79 36.69C42.87 36.72 42.95 36.73 43.04 36.73C43.21 36.73 43.34 36.67 43.45 36.56L44.21 35.81C44.46 35.56 44.7 35.37 44.93 35.25C45.16 35.11 45.39 35.04 45.64 35.04C45.83 35.04 46.03 35.08 46.25 35.17C46.47 35.26 46.7 35.39 46.95 35.56L50.26 37.91C50.52 38.09 50.7 38.3 50.81 38.55C50.91 38.8 50.97 39.05 50.97 39.33Z" stroke="white" stroke-width="1.5" stroke-miterlimit="10"/>
</g>
<defs>
<filter id="filter0_d_45_849" x="0" y="0" width="74" height="74" filterUnits="userSpaceOnUse" color-interpolation-filters="sRGB">
<feFlood flood-opacity="0" result="BackgroundImageFix"/>
<feColorMatrix in="SourceAlpha" type="matrix" values="0 0 0 0 0 0 0 0 0 0 0 0 0 0 0 0 0 0 127 0" result="hardAlpha"/>
<feOffset dx="-4" dy="4"/>
<feGaussianBlur stdDeviation="6"/>
<feComposite in2="hardAlpha" operator="out"/>
<feColorMatrix type="matrix" values="0 0 0 0 1 0 0 0 0 0.712837 0 0 0 0 0.155404 0 0 0 0.46 0"/>
<feBlend mode="normal" in2="BackgroundImageFix" result="effect1_dropShadow_45_849"/>
<feBlend mode="normal" in="SourceGraphic" in2="effect1_dropShadow_45_849" result="shape"/>
</filter>
</defs>
</svg>
