<svg width="39" height="39" viewBox="0 0 39 39" fill="none" xmlns="http://www.w3.org/2000/svg">
<rect width="39" height="39" rx="10" fill="white"/>
<path d="M29.5 18.9V12.1C29.5 10.6 28.86 10 27.27 10H23.23C21.64 10 21 10.6 21 12.1V18.9C21 20.4 21.64 21 23.23 21H27.27C28.86 21 29.5 20.4 29.5 18.9Z" fill="#0466C8"/>
<path d="M19 21.1V27.9C19 29.4 18.36 30 16.77 30H12.73C11.14 30 10.5 29.4 10.5 27.9V21.1C10.5 19.6 11.14 19 12.73 19H16.77C18.36 19 19 19.6 19 21.1Z" fill="#0466C8"/>
<path opacity="0.4" d="M29.5 27.9V25.1C29.5 23.6 28.86 23 27.27 23H23.23C21.64 23 21 23.6 21 25.1V27.9C21 29.4 21.64 30 23.23 30H27.27C28.86 30 29.5 29.4 29.5 27.9Z" fill="#0466C8"/>
<path opacity="0.4" d="M19 14.9V12.1C19 10.6 18.36 10 16.77 10H12.73C11.14 10 10.5 10.6 10.5 12.1V14.9C10.5 16.4 11.14 17 12.73 17H16.77C18.36 17 19 16.4 19 14.9Z" fill="#0466C8"/>
</svg>
