<svg width="44" height="44" viewBox="0 0 44 44" fill="none" xmlns="http://www.w3.org/2000/svg">
<path d="M4 14C4 8.47715 8.47715 4 14 4H30C35.5228 4 40 8.47715 40 14V15H4V14Z" fill="#FFB628"/>
<path d="M16.5 23.8334C15.29 24.4384 14.2817 25.3367 13.53 26.455C13.1083 27.0967 13.1083 27.9034 13.53 28.545C14.2817 29.6634 15.29 30.5617 16.5 31.1667" stroke="#292D32" stroke-width="1.5" stroke-linecap="round" stroke-linejoin="round"/>
<path d="M27.885 23.8334C29.095 24.4384 30.1033 25.3367 30.855 26.455C31.2767 27.0967 31.2767 27.9034 30.855 28.545C30.1033 29.6634 29.095 30.5617 27.885 31.1667" stroke="#292D32" stroke-width="1.5" stroke-linecap="round" stroke-linejoin="round"/>
<path d="M16.5 40.3333H27.5C36.6667 40.3333 40.3333 36.6666 40.3333 27.5V16.5C40.3333 7.33329 36.6667 3.66663 27.5 3.66663H16.5C7.33332 3.66663 3.66666 7.33329 3.66666 16.5V27.5C3.66666 36.6666 7.33332 40.3333 16.5 40.3333Z" stroke="#292D32" stroke-width="1.5" stroke-linecap="round" stroke-linejoin="round"/>
<path d="M4.08832 14.685L39.325 14.6666" stroke="#292D32" stroke-width="1.5" stroke-linecap="round" stroke-linejoin="round"/>
</svg>
