<svg width="24" height="24" viewBox="0 0 24 24" fill="none" xmlns="http://www.w3.org/2000/svg">
<path d="M16.9719 6.251C16.7423 6.12325 16.4898 6.04201 16.2288 6.01193C15.9678 5.98184 15.7035 6.0035 15.4509 6.07567C15.1982 6.14783 14.9623 6.26908 14.7566 6.43249C14.5509 6.5959 14.3794 6.79826 14.2519 7.028L10.5389 13.71L8.41392 11.585C8.22942 11.394 8.00874 11.2416 7.76473 11.1368C7.52072 11.032 7.25828 10.9768 6.99272 10.9745C6.72716 10.9722 6.4638 11.0228 6.21801 11.1234C5.97222 11.2239 5.74891 11.3724 5.56113 11.5602C5.37334 11.748 5.22484 11.9713 5.12427 12.2171C5.02371 12.4629 4.97311 12.7262 4.97542 12.9918C4.97772 13.2574 5.0329 13.5198 5.13772 13.7638C5.24253 14.0078 5.3949 14.2285 5.58592 14.413L9.58592 18.413C9.96392 18.792 10.4739 19 10.9999 19L11.2769 18.98C11.5835 18.9371 11.8759 18.8237 12.1311 18.6486C12.3864 18.4735 12.5975 18.2415 12.7479 17.971L17.7479 8.971C17.8756 8.74145 17.9568 8.48901 17.9869 8.22808C18.0169 7.96715 17.9953 7.70286 17.9233 7.45028C17.8512 7.1977 17.7301 6.96179 17.5669 6.75602C17.4036 6.55024 17.2015 6.37864 16.9719 6.251Z" fill="#FFB628"/>
</svg>
