<svg width="44" height="44" viewBox="0 0 44 44" fill="none" xmlns="http://www.w3.org/2000/svg">
<path d="M17.9758 10L14.3194 13.6565C13.8935 14.0823 13.8935 14.8018 14.3194 15.2277L17.9758 18.8841" stroke="#292D32" stroke-width="1.5" stroke-miterlimit="10" stroke-linecap="round" stroke-linejoin="round"/>
<path d="M25.0242 10L28.6806 13.6565C29.1065 14.0823 29.1065 14.8018 28.6806 15.2277L25.0242 18.8841" stroke="#292D32" stroke-width="1.5" stroke-miterlimit="10" stroke-linecap="round" stroke-linejoin="round"/>
<path d="M4 24H40C40 28.4183 36.4183 32 32 32H12C7.58172 32 4 28.4183 4 24Z" fill="#FFB628"/>
<path d="M11.8067 3.66663H32.175C38.7017 3.66663 40.3333 5.29829 40.3333 11.8066V23.4116C40.3333 29.9383 38.7017 31.5516 32.1933 31.5516H11.8067C5.29833 31.57 3.66666 29.9383 3.66666 23.43V11.8066C3.66666 5.29829 5.29833 3.66663 11.8067 3.66663Z" stroke="#292D32" stroke-width="1.5" stroke-linecap="round" stroke-linejoin="round"/>
<path d="M22 31.5699V40.3333" stroke="#292D32" stroke-width="1.5" stroke-linecap="round" stroke-linejoin="round"/>
<path d="M3.66666 23.8334H40.3333" stroke="#292D32" stroke-width="1.5" stroke-linecap="round" stroke-linejoin="round"/>
<path d="M13.75 40.3334H30.25" stroke="#292D32" stroke-width="1.5" stroke-linecap="round" stroke-linejoin="round"/>
</svg>
