<svg width="63" height="63" viewBox="0 0 63 63" fill="none" xmlns="http://www.w3.org/2000/svg">
<path d="M26.5081 3.6396C29.9469 1.73713 34.1393 1.81373 37.5063 3.84053L53.1319 13.2467C56.4988 15.2735 58.5288 18.9426 58.457 22.8718L58.1238 41.1071C58.052 45.0363 55.8895 48.6288 52.4507 50.5313L36.492 59.3604C33.0532 61.2629 28.8607 61.1863 25.4938 59.1595L9.86818 49.7533C6.50123 47.7265 4.47132 44.0574 4.54311 40.1282L4.87626 21.8929C4.94805 17.9637 7.11062 14.3712 10.5494 12.4687L26.5081 3.6396Z" fill="#FFF3DC"/>
<path d="M23.4268 6.27513C26.8672 4.25334 31.1328 4.25334 34.5732 6.27513L47.8219 14.0609C51.184 16.0367 53.2487 19.6448 53.2487 23.5445V39.4555C53.2487 43.3552 51.184 46.9634 47.8219 48.9391L34.5732 56.7249C31.1328 58.7467 26.8672 58.7467 23.4268 56.7249L10.1781 48.9391C6.816 46.9633 4.75129 43.3552 4.75129 39.4555V23.5445C4.75129 19.6448 6.816 16.0366 10.1781 14.0609L23.4268 6.27513Z" fill="#FFB628"/>
<path d="M38.97 38.33C38.97 38.69 38.89 39.06 38.72 39.42C38.55 39.78 38.33 40.12 38.04 40.44C37.55 40.98 37.01 41.37 36.4 41.62C35.8 41.87 35.15 42 34.45 42C33.43 42 32.34 41.76 31.19 41.27C30.04 40.78 28.89 40.12 27.75 39.29C26.6 38.45 25.51 37.52 24.47 36.49C23.44 35.45 22.51 34.36 21.68 33.22C20.86 32.08 20.2 30.94 19.72 29.81C19.24 28.67 19 27.58 19 26.54C19 25.86 19.12 25.21 19.36 24.61C19.6 24 19.98 23.44 20.51 22.94C21.15 22.31 21.85 22 22.59 22C22.87 22 23.15 22.06 23.4 22.18C23.66 22.3 23.89 22.48 24.07 22.74L26.39 26.01C26.57 26.26 26.7 26.49 26.79 26.71C26.88 26.92 26.93 27.13 26.93 27.32C26.93 27.56 26.86 27.8 26.72 28.03C26.59 28.26 26.4 28.5 26.16 28.74L25.4 29.53C25.29 29.64 25.24 29.77 25.24 29.93C25.24 30.01 25.25 30.08 25.27 30.16C25.3 30.24 25.33 30.3 25.35 30.36C25.53 30.69 25.84 31.12 26.28 31.64C26.73 32.16 27.21 32.69 27.73 33.22C28.27 33.75 28.79 34.24 29.32 34.69C29.84 35.13 30.27 35.43 30.61 35.61C30.66 35.63 30.72 35.66 30.79 35.69C30.87 35.72 30.95 35.73 31.04 35.73C31.21 35.73 31.34 35.67 31.45 35.56L32.21 34.81C32.46 34.56 32.7 34.37 32.93 34.25C33.16 34.11 33.39 34.04 33.64 34.04C33.83 34.04 34.03 34.08 34.25 34.17C34.47 34.26 34.7 34.39 34.95 34.56L38.26 36.91C38.52 37.09 38.7 37.3 38.81 37.55C38.91 37.8 38.97 38.05 38.97 38.33Z" stroke="white" stroke-width="1.5" stroke-miterlimit="10"/>
</svg>
