<svg width="18" height="18" viewBox="0 0 18 18" fill="none" xmlns="http://www.w3.org/2000/svg">
<path d="M9.75715 2.18999L14.1821 4.15499C15.4571 4.71749 15.4571 5.64749 14.1821 6.20999L9.75715 8.17499C9.25465 8.39999 8.42965 8.39999 7.92715 8.17499L3.50215 6.20999C2.22715 5.64749 2.22715 4.71749 3.50215 4.15499L7.92715 2.18999C8.42965 1.96499 9.25465 1.96499 9.75715 2.18999Z" stroke="#0466C8" stroke-linecap="round" stroke-linejoin="round"/>
<path d="M2.25 8.25C2.25 8.88 2.7225 9.6075 3.3 9.8625L8.3925 12.1275C8.7825 12.3 9.225 12.3 9.6075 12.1275L14.7 9.8625C15.2775 9.6075 15.75 8.88 15.75 8.25" stroke="#0466C8" stroke-linecap="round" stroke-linejoin="round"/>
<path d="M2.25 12C2.25 12.6975 2.6625 13.3275 3.3 13.6125L8.3925 15.8775C8.7825 16.05 9.225 16.05 9.6075 15.8775L14.7 13.6125C15.3375 13.3275 15.75 12.6975 15.75 12" stroke="#0466C8" stroke-linecap="round" stroke-linejoin="round"/>
</svg>
