<svg width="32" height="32" viewBox="0 0 32 32" fill="none" xmlns="http://www.w3.org/2000/svg">
<path opacity="0.4" d="M28.88 13.92L27.5733 19.4933C26.4534 24.3067 24.24 26.2533 20.08 25.8533C19.4133 25.8 18.6933 25.68 17.92 25.4933L15.68 24.96C10.12 23.64 8.40002 20.8933 9.70668 15.32L11.0133 9.73332C11.28 8.59999 11.6 7.61332 12 6.79999C13.56 3.57332 16.2133 2.70666 20.6667 3.75999L22.8933 4.27999C28.48 5.58666 30.1867 8.34666 28.88 13.92Z" fill="#0466C8"/>
<path d="M20.08 25.8533C19.2534 26.4133 18.2134 26.88 16.9467 27.2933L14.84 27.9867C9.54669 29.6933 6.76003 28.2667 5.04003 22.9733L3.33336 17.7067C1.62669 12.4133 3.04003 9.61332 8.33336 7.90665L10.44 7.21332C10.9867 7.03999 11.5067 6.89332 12 6.79999C11.6 7.61332 11.28 8.59999 11.0134 9.73332L9.70669 15.32C8.40003 20.8933 10.12 23.64 15.68 24.96L17.92 25.4933C18.6934 25.68 19.4134 25.8 20.08 25.8533Z" fill="#0466C8"/>
<path d="M23.32 14.0133C23.24 14.0133 23.16 14 23.0667 13.9867L16.6 12.3467C16.0667 12.2133 15.7467 11.6667 15.88 11.1333C16.0133 10.6 16.56 10.28 17.0933 10.4133L23.56 12.0533C24.0933 12.1867 24.4133 12.7333 24.28 13.2667C24.1733 13.7067 23.76 14.0133 23.32 14.0133Z" fill="#0466C8"/>
<path d="M19.4133 18.52C19.3333 18.52 19.2533 18.5066 19.16 18.4933L15.28 17.5066C14.7467 17.3733 14.4267 16.8266 14.56 16.2933C14.6933 15.76 15.24 15.44 15.7733 15.5733L19.6533 16.56C20.1867 16.6933 20.5067 17.24 20.3733 17.7733C20.2667 18.2266 19.8667 18.52 19.4133 18.52Z" fill="#0466C8"/>
</svg>
