<svg width="24" height="24" viewBox="0 0 24 24" fill="none" xmlns="http://www.w3.org/2000/svg">
<path opacity="0.4" d="M16.8901 5.96003L7.8701 2.95003C3.8201 1.60003 1.6201 3.81003 2.9601 7.86003L5.9701 16.88C7.9901 22.95 11.3101 22.95 13.3301 16.88L14.2201 14.2L16.9001 13.31C22.9601 11.3 22.9601 7.99003 16.8901 5.96003Z" fill="#0466C8"/>
<path d="M11.8799 11.6301L8.06988 7.81006L11.8799 11.6301Z" fill="#0466C8"/>
<path d="M11.8799 12.38C12.0699 12.38 12.2599 12.31 12.4099 12.16C12.6999 11.87 12.6999 11.39 12.4099 11.1L8.60994 7.28C8.31994 6.99 7.83994 6.99 7.54994 7.28C7.25994 7.57 7.25994 8.05 7.54994 8.34L11.3499 12.16C11.4999 12.3 11.6899 12.38 11.8799 12.38Z" fill="#0466C8"/>
</svg>
