<svg width="32" height="32" viewBox="0 0 32 32" fill="none" xmlns="http://www.w3.org/2000/svg">
<path opacity="0.4" d="M27.2133 9.27998V13.0667L9.86662 25.7866L6.35995 23.16C5.49329 22.5067 4.78662 21.1066 4.78662 20.0266V9.27998C4.78662 7.78665 5.93329 6.13332 7.33329 5.61332L14.6266 2.87998C15.3866 2.59998 16.6133 2.59998 17.3733 2.87998L24.6666 5.61332C26.0666 6.13332 27.2133 7.78665 27.2133 9.27998Z" fill="#0466C8"/>
<path d="M27.2133 14.8933V20.0266C27.2133 21.1066 26.5066 22.5066 25.6399 23.16L18.3466 28.6133C17.7066 29.0933 16.8533 29.3333 15.9999 29.3333C15.1466 29.3333 14.2933 29.0933 13.6533 28.6133L11.0933 26.7066L27.2133 14.8933Z" fill="#0466C8"/>
</svg>
