<svg width="16" height="16" viewBox="0 0 16 16" fill="none" xmlns="http://www.w3.org/2000/svg">
<path d="M3.82667 10.6666C3.9 10.3399 3.76667 9.87325 3.53333 9.63992L1.91333 8.01992C1.40667 7.51325 1.20667 6.97325 1.35333 6.50659C1.50667 6.03992 1.98 5.71992 2.68667 5.59992L4.76667 5.25325C5.06667 5.19992 5.43333 4.93325 5.57333 4.65992L6.72 2.35992C7.05333 1.69992 7.50667 1.33325 8 1.33325C8.49333 1.33325 8.94667 1.69992 9.28 2.35992L10.4267 4.65992C10.5133 4.83325 10.6933 4.99992 10.8867 5.11325L3.70667 12.2933C3.61333 12.3866 3.45333 12.2999 3.48 12.1666L3.82667 10.6666Z" fill="#FFB628"/>
<path d="M12.4667 9.64001C12.2267 9.88001 12.0933 10.34 12.1733 10.6667L12.6333 12.6733C12.8267 13.5067 12.7067 14.1333 12.2933 14.4333C12.1267 14.5533 11.9267 14.6133 11.6933 14.6133C11.3533 14.6133 10.9533 14.4867 10.5133 14.2267L8.56 13.0667C8.25333 12.8867 7.74667 12.8867 7.44 13.0667L5.48667 14.2267C4.74667 14.66 4.11334 14.7333 3.70667 14.4333C3.55334 14.32 3.44 14.1667 3.36667 13.9667L11.4733 5.86001C11.78 5.55335 12.2133 5.41335 12.6333 5.48668L13.3067 5.60001C14.0133 5.72001 14.4867 6.04001 14.64 6.50668C14.7867 6.97335 14.5867 7.51335 14.08 8.02001L12.4667 9.64001Z" fill="#FFB628"/>
</svg>
