<svg width="22" height="21" viewBox="0 0 22 21" fill="none" xmlns="http://www.w3.org/2000/svg">
<path fill-rule="evenodd" clip-rule="evenodd" d="M6.9802 0.216889C4.62621 0.738186 2.10588 2.79603 1.02046 5.05213C-1.49987 10.3318 0.839 17.4077 5.94015 19.9407C7.78168 20.8619 8.76123 21.0619 11.0094 20.985C12.5031 20.9235 13.1365 20.8158 14.1026 20.5099C17.0447 19.5271 19.9263 17.1787 21.0134 14.8764C21.783 13.2801 22.0854 11.976 21.9795 10.7317C21.8888 9.61048 21.331 7.66203 21.1192 7.66203C21.0285 7.66203 20.968 7.70818 20.968 7.76971C20.8924 10.7932 20.8168 11.6837 20.5312 12.5742C19.7768 15.0303 18.1167 16.8864 15.3561 18.3905C9.45686 21.6294 3.13417 18.6981 1.47411 11.9589C0.492861 7.90644 2.25879 3.71727 5.65284 2.04399C7.96147 0.922776 10.4515 1.01507 12.3519 2.30549C15.0973 4.16336 15.4149 8.13718 13.0458 10.7163C11.4765 12.4204 9.81641 12.5742 8.32269 11.1299C7.02556 9.90275 6.78362 7.79876 7.77999 6.47928C8.27733 5.80416 8.92591 5.48113 9.77107 5.48113C10.3591 5.48113 10.5406 5.55804 10.8884 5.95628C11.537 6.70831 11.4311 7.81415 10.6465 8.4585C10.4801 8.61233 10.2247 8.73539 10.0886 8.73539C9.4098 8.73539 9.34929 9.82584 10.0281 10.1472C10.5859 10.4087 11.174 10.1625 11.9284 9.36436C13.4826 7.72185 13.1197 5.31192 11.1589 4.26933C10.6465 4.00783 9.09226 4.02321 8.42857 4.31548C7.59854 4.68466 6.76849 5.5119 6.39212 6.35623C5.9099 7.38515 5.89476 9.11824 6.33162 10.3318C7.25238 12.8032 10.013 14.0919 12.246 13.0784C13.1063 12.6802 14.3127 11.5743 14.9159 10.6069C15.9425 8.94903 16.2735 6.56987 15.7459 4.7291C14.7344 1.24581 11.0077 -0.673588 6.9802 0.216889Z" fill="#0466C8"/>
</svg>
